<?xml version="1.0" encoding="UTF-8"?>
<svg version="1.1" xmlns="http://www.w3.org/2000/svg" width="3090" height="2220">
<path d="M0 0 C1019.7 0 2039.4 0 3090 0 C3090 732.6 3090 1465.2 3090 2220 C2070.3 2220 1050.6 2220 0 2220 C0 1487.4 0 754.8 0 0 Z " fill="#FEFEFE" transform="translate(0,0)"/>
<path d="M0 0 C8.79805663 -0.17552231 17.59611366 -0.30884765 26.3952909 -0.41385037 C31.65641416 -0.47925947 36.91477263 -0.56830769 42.17431476 -0.71467665 C47.05805735 -0.85055054 51.93901088 -0.92599016 56.82451766 -0.95558229 C58.61464331 -0.97746994 60.40465888 -1.0219021 62.19359647 -1.09068576 C67.59959566 -1.29165161 72.41231083 -1.29780731 77.61277201 0.30375883 C81.52943706 4.23328571 83.39152233 8.21422174 85.61277201 13.30375883 C86.84542504 15.38325997 88.10451524 17.44756799 89.40183451 19.48735258 C90.02638529 20.50611479 90.65093607 21.52487699 91.29441264 22.57451078 C97.73128852 33.0635456 104.24318715 43.4982381 110.87156107 53.86772367 C115.19570968 60.63437776 119.43351854 67.44644716 123.61277201 74.30375883 C133.18617199 89.94967663 142.92486998 105.49460549 152.73777201 120.99125883 C159.66295623 131.93149627 166.45779146 142.95177253 173.25827982 153.96977445 C179.48926187 164.06226231 185.75194302 174.13191531 192.1000767 184.15117094 C196.29389334 190.77858066 200.42544502 197.44334621 204.54636576 204.11625883 C209.33797206 211.87139415 214.16880777 219.60161481 219.0063267 227.32817289 C222.09781457 232.26910451 225.18058014 237.21502494 228.24167826 242.17485258 C228.82046732 243.11264555 229.39925639 244.05043852 229.99558451 245.01664945 C231.07387886 246.76574319 232.15082041 248.51567204 233.22605326 250.26664945 C233.96081889 251.45871 233.96081889 251.45871 234.71042826 252.67485258 C235.17980814 253.4429727 235.64918803 254.21109281 236.13279154 255.0024893 C237.16110337 256.60144464 238.25103539 258.16174934 239.38572123 259.68705961 C243.68093761 265.51828139 243.68093761 265.51828139 243.35886576 269.22954008 C242.78265482 270.24403227 242.20644389 271.25852445 241.61277201 272.30375883 C241.00393168 273.40083158 241.00393168 273.40083158 240.38279154 274.52006742 C238.8619095 277.2083687 237.27568615 279.84957539 235.67527201 282.49125883 C234.48704696 284.47650213 233.29955852 286.46218648 232.11277201 288.44829008 C231.51980326 289.43780668 230.92683451 290.42732328 230.31589701 291.44682524 C227.89807526 295.50263803 225.5322698 299.58739138 223.17527201 303.67875883 C215.32728118 317.27288114 207.41616603 330.83033213 199.46824076 344.36625883 C189.48371879 361.37185036 179.58543125 378.42472469 169.76267435 395.52446195 C162.72852439 407.76902487 155.64462958 419.9800159 148.42527201 432.11625883 C143.21434865 440.87665172 138.07752004 449.67189503 133.04294779 458.53471586 C128.76327925 466.06341536 124.40220565 473.54299997 120.0297642 481.0181143 C115.73456027 488.3664083 111.48006458 495.7373184 107.23777201 503.11625883 C101.15593914 513.69123038 94.9662177 524.19879474 88.71482279 534.67412016 C88.07657572 535.74557279 87.43832865 536.81702543 86.78074076 537.92094633 C86.21637308 538.86566801 85.65200541 539.81038969 85.07053568 540.7837393 C83.83047893 542.92741135 82.70756971 545.08438802 81.61277201 547.30375883 C67.62242888 547.43975357 53.63207031 547.57410352 39.64170124 547.7074022 C37.27572497 547.72995167 34.90974896 547.75252779 32.5437732 547.77513072 C2.90613526 548.05816292 -26.73154887 548.32552316 -56.36964986 548.55546781 C-58.99900249 548.57596719 -61.62835506 548.59647341 -64.25770757 548.61698648 C-74.73126789 548.6985634 -85.20482857 548.78005755 -95.67840383 548.85969564 C-125.04251447 549.08382424 -154.40283328 549.37267813 -183.76392565 549.8506442 C-193.71314308 550.0100612 -203.66293118 550.12061822 -213.61291883 550.21929571 C-221.6832482 550.30178677 -229.74838134 550.44911775 -237.81689832 550.64388582 C-242.67603842 550.74554716 -247.53411502 550.78531995 -252.3942127 550.8058016 C-254.56573622 550.82735142 -256.73720524 550.87428266 -258.90749548 550.95056555 C-275.45546102 551.51610765 -275.45546102 551.51610765 -281.40993307 546.10621855 C-284.2922683 543.0347946 -286.7448806 539.75339271 -289.07407186 536.24935934 C-291.17609646 533.13495425 -293.54476635 530.23849088 -295.88722799 527.30375883 C-296.78443689 526.14857589 -297.68042933 524.99244623 -298.57472799 523.83500883 C-301.55209867 520.04562796 -304.70765087 516.42376454 -307.88722799 512.80375883 C-312.54158072 507.50393688 -316.97439316 502.08815091 -321.28908346 496.50956938 C-325.06120621 491.65705476 -329.02384731 486.99136874 -333.04543111 482.34477445 C-336.81352086 477.98868631 -340.47578611 473.55698433 -344.10597799 469.08500883 C-346.68565687 465.93992088 -349.31354782 462.83896207 -351.94972799 459.74125883 C-355.82274851 455.18738457 -359.5934569 450.56880582 -363.30519674 445.88188383 C-365.71807229 442.89408296 -368.20533377 439.97332399 -370.69972799 437.05375883 C-375.05910861 431.94333521 -379.25377428 426.72470817 -383.37795065 421.4231436 C-387.09868808 416.64462866 -390.92717861 411.96774101 -394.80519674 407.31547758 C-396.38722799 405.30375883 -396.38722799 405.30375883 -396.38722799 404.30375883 C-354.40279651 403.59790225 -312.4220304 403.10411173 -270.43257584 402.84489605 C-262.89683244 402.7981794 -255.36111706 402.74746067 -247.82540121 402.69652101 C-234.33495468 402.60536749 -220.84449626 402.51615214 -207.35402486 402.42875883 C-206.16095376 402.4210287 -206.16095376 402.4210287 -204.94378021 402.41314241 C-196.87174064 402.36086798 -188.79969969 402.30880891 -180.72765787 402.25688431 C-176.68351702 402.23086742 -172.63937635 402.20482247 -168.5952358 402.17875883 C-167.79665677 402.17361297 -166.99807774 402.1684671 -166.17529934 402.1631653 C-152.69415481 402.07621815 -139.21302895 401.98664322 -125.7319139 401.8952429 C-118.24739729 401.84460274 -110.76287683 401.79526296 -103.27832983 401.74931547 C-101.13582907 401.73604539 -98.99332848 401.72274703 -96.85082801 401.70942971 C-95.4426344 401.70072168 -94.03444022 401.69210401 -92.62624549 401.68357798 C-85.18049393 401.63824788 -77.73511271 401.58327329 -70.28965757 401.50087187 C-67.70273652 401.47264784 -65.1158142 401.44453989 -62.52889059 401.4165518 C-61.27037184 401.40271641 -60.0118531 401.38888101 -58.71519742 401.37462637 C-51.11182292 401.30279107 -43.51566952 401.32822792 -35.91269407 401.43079969 C-31.06948089 401.48930968 -26.22672925 401.50244862 -21.38319848 401.50836393 C-19.1395303 401.5227842 -16.8958786 401.55842393 -14.6529362 401.61728117 C-2.48619244 402.44180049 -2.48619244 402.44180049 8.14498141 397.66337034 C12.59588947 392.81040027 15.64202578 387.05242846 17.29245951 380.71000883 C19.39128987 373.67648242 22.38094535 367.92707286 26.17527201 361.67875883 C27.24683328 359.802223 28.31193488 357.92198394 29.37058451 356.03813383 C29.90071146 355.10162992 30.43083842 354.16512602 30.97702982 353.2002432 C33.84771074 348.11699568 36.69933899 343.02310085 39.55027201 337.92875883 C40.13099467 336.89106352 40.71171732 335.8533682 41.31003764 334.78422758 C43.07796975 331.62426918 44.84545815 328.46406305 46.61277201 325.30375883 C54.66848879 310.8985554 62.74265514 296.5043062 70.87058451 282.13969633 C71.3375474 281.30792875 71.80451029 280.47616117 72.28562357 279.61918852 C73.13023747 278.14562005 73.99963049 276.68578247 74.90085795 275.24614164 C77.0504528 272.03211595 77.0504528 272.03211595 77.3525181 268.32719633 C76.57711366 266.20622207 75.66398413 264.65818314 74.34714701 262.82719633 C73.87599467 262.16590727 73.40484232 261.5046182 72.91941264 260.82329008 C72.40572123 260.11559477 71.89202982 259.40789945 71.36277201 258.67875883 C70.8284556 257.93239164 70.2941392 257.18602445 69.74363139 256.41704008 C68.03999787 254.04107622 66.32739443 251.67180191 64.61277201 249.30375883 C63.52411012 247.79603313 62.43556644 246.28822207 61.34714701 244.78032133 C59.72317233 242.53177875 58.09835948 240.28386336 56.47117045 238.03764555 C52.31105677 232.2905439 48.2131077 226.50186157 44.13230326 220.69829008 C40.49822635 215.53809163 36.816058 210.41446943 33.11277201 205.30375883 C28.40606443 198.80827878 23.75679828 192.27559948 19.14328959 185.71367094 C14.89301626 179.67801634 10.57803102 173.69045771 6.23972514 167.71782133 C5.73763529 167.02559477 5.23554545 166.3333682 4.71824076 165.62016508 C4.22026484 164.97207884 3.72228892 164.32399259 3.20922282 163.65626737 C1.61277201 161.30375883 1.61277201 161.30375883 0.60689738 158.73030302 C-0.98169458 155.28779187 -2.31762241 153.57914088 -5.38722799 151.30375883 C-12.94479819 149.31290809 -21.22266511 150.12606603 -28.95754049 150.29204008 C-31.40472582 150.30791885 -33.85194355 150.31933631 -36.29916952 150.32663175 C-41.58280461 150.35221548 -46.86476025 150.40849064 -52.14769552 150.49223539 C-59.91126602 150.61502578 -67.67453088 150.67956967 -75.43886552 150.73067614 C-88.10231723 150.81525601 -100.76496411 150.941872 -113.42775533 151.09526274 C-129.80238093 151.29312715 -146.17700777 151.43408063 -162.55239413 151.55081841 C-165.96409414 151.57531204 -169.37578727 151.6007275 -172.78748129 151.62603971 C-184.37672754 151.71172235 -195.96599493 151.79437209 -207.55527178 151.87580112 C-213.05271656 151.91446461 -218.55015681 151.95373809 -224.04759435 151.99341717 C-227.50818486 152.01837151 -230.968777 152.04301434 -234.42937467 152.06695578 C-251.49334857 152.18533885 -268.55615692 152.34529522 -285.61922155 152.55830404 C-299.04246318 152.7252681 -312.46565352 152.85165231 -325.88962457 152.94287321 C-334.18038432 153.00073474 -342.46939633 153.09159054 -350.75926242 153.2267327 C-356.38676532 153.31546984 -362.01370611 153.36365195 -367.64188061 153.38020512 C-370.88779663 153.39100534 -374.13032238 153.42579199 -377.37554739 153.49721739 C-397.90426178 153.93285922 -397.90426178 153.93285922 -403.04265402 149.96623442 C-405.60707059 147.19734173 -407.47187573 144.54285046 -409.38722799 141.30375883 C-410.82098166 139.51296649 -412.27655897 137.73922175 -413.76222799 135.99125883 C-414.85664205 134.63580961 -414.85664205 134.63580961 -415.97316549 133.25297758 C-418.72584672 129.89007413 -421.54904568 126.59446314 -424.38722799 123.30375883 C-428.67899083 118.32404968 -432.88294614 113.28700509 -437.01222799 108.17094633 C-438.8337534 105.97193375 -440.68154413 103.82255714 -442.57472799 101.68657133 C-443.39747213 100.75167875 -443.39747213 100.75167875 -444.23683736 99.79789945 C-445.31347915 98.57855485 -446.39780645 97.36594091 -447.49074361 96.1611807 C-450.35670865 92.904573 -452.03055335 90.64825406 -452.38722799 86.30375883 C-451.54543111 84.17338774 -451.54543111 84.17338774 -450.16847799 82.03032133 C-449.65591451 81.21732572 -449.14335104 80.40433012 -448.61525533 79.56669828 C-448.04500631 78.69617826 -447.47475729 77.82565824 -446.88722799 76.92875883 C-446.01058492 75.55240263 -446.01058492 75.55240263 -445.1162319 74.14824125 C-443.22383498 71.18852447 -441.3087592 68.24463305 -439.38722799 65.30375883 C-438.7552651 64.33357817 -438.12330221 63.3633975 -437.47218893 62.36381742 C-434.93428444 58.4698056 -432.39331643 54.57786389 -429.84303854 50.69194242 C-425.56981438 44.16863577 -421.43416323 37.57842676 -417.40089986 30.90458891 C-413.41782635 24.31829235 -409.31223108 17.81287565 -405.18141744 11.31840727 C-404.7001943 10.56076078 -404.21897115 9.8031143 -403.72316549 9.02250883 C-403.29568014 8.3515518 -402.86819479 7.68059477 -402.42775533 6.9893057 C-401.3391065 5.28192688 -401.3391065 5.28192688 -400.38722799 3.30375883 C-353.06798014 2.9170913 -305.74870032 2.53455807 -258.42937717 2.15721202 C-252.78235195 2.11217667 -247.135327 2.06710872 -241.48830221 2.02202055 C-240.36456332 2.0130487 -239.24082442 2.00407686 -238.08303284 1.99483314 C-220.13077599 1.85142684 -202.17854135 1.70540887 -184.22631415 1.55834261 C-165.66429882 1.4063422 -147.10226098 1.25734036 -128.54020128 1.1108577 C-118.17381312 1.02897221 -107.80743839 0.94585501 -97.4410877 0.8593466 C-94.47105053 0.83470626 -91.50101296 0.8101158 -88.53097504 0.78556636 C-86.56742157 0.7693022 -84.60386884 0.75294834 -82.64031687 0.73650447 C-72.08915352 0.64850156 -61.53811536 0.57105152 -50.98668287 0.52414915 C-48.15719333 0.51106727 -45.32770464 0.49782682 -42.49821665 0.48441258 C-40.61067435 0.47547518 -38.72313097 0.46676144 -36.8355866 0.45827249 C-24.55455484 0.39984107 -12.2787267 0.24618204 0 0 Z " fill="#4E8526" transform="translate(1768.3872279897332,775.6962411701679)"/>
<path d="M0 0 C4.42471342 -0.12506584 8.85029621 -0.21407181 13.2759133 -0.3005529 C16.6618555 -0.37035208 20.0384891 -0.47416981 23.42223585 -0.62711084 C44.42080284 -1.57318009 44.42080284 -1.57318009 50.2656635 3.39092696 C52.95101575 6.2098814 55.05435365 9.23818303 57.01662576 12.5914017 C58.93494082 15.73237059 61.27943921 18.53566112 63.59180486 21.3916899 C64.09316961 22.03807417 64.59453435 22.68445845 65.11109197 23.35043013 C68.9967184 28.34691566 73.1423537 33.09428834 77.31812322 37.84847701 C81.38369311 42.50163703 85.21520671 47.29477329 88.99024236 52.18465865 C92.40197181 56.57257658 95.98673953 60.77867538 99.65430486 64.9541899 C104.2897171 70.23159585 108.69855856 75.62554775 112.99024236 81.18465865 C116.40197181 85.57257658 119.98673953 89.77867538 123.65430486 93.9541899 C128.2897171 99.23159585 132.69855856 104.62554775 136.99024236 110.18465865 C140.40198437 114.57259273 143.98694403 118.77847668 147.65430486 122.9541899 C152.06177221 127.976821 156.33588226 133.07608753 160.46680486 138.3291899 C160.94117986 138.93053755 161.41555486 139.53188521 161.90430486 140.15145552 C165.15430486 144.32375282 165.15430486 144.32375282 165.15430486 145.4541899 C110.1434356 146.07306895 55.13233761 146.55679955 0.1192826 146.92338622 C-4.50466091 146.95420401 -9.1286026 146.9852888 -13.75254405 147.01641524 C-43.07872676 147.21371369 -72.40493237 147.40732247 -101.73117965 147.59478343 C-115.19513992 147.68093281 -128.65907544 147.77042468 -142.12299508 147.86270583 C-150.31740566 147.91874567 -158.51182421 147.9721321 -166.70627583 148.0218178 C-172.93400337 148.05983003 -179.1616925 148.10238849 -185.38937914 148.14657271 C-187.91760501 148.16379749 -190.44584132 148.17956747 -192.9740864 148.19369185 C-199.60010275 148.2311251 -206.22481714 148.29014046 -212.85000646 148.40334761 C-214.84904282 148.43727489 -216.84817671 148.46587004 -218.84736526 148.48916304 C-221.64098186 148.52802139 -224.43193255 148.59817563 -227.22461665 148.67879927 C-228.0389013 148.68606787 -228.85318594 148.69333647 -229.69214588 148.70082533 C-233.54498184 148.84794962 -235.52482381 149.19296848 -238.55246603 151.65777266 C-240.61637182 154.47973854 -241.89443459 157.22084574 -243.22069514 160.4541899 C-244.32930482 162.7546665 -245.44004277 165.05411849 -246.55272639 167.3526274 C-247.09236018 168.53437544 -247.63199397 169.71612349 -248.18798029 170.93368208 C-250.80113545 176.48326932 -253.85893349 181.76080782 -256.90819514 187.0791899 C-258.07821057 189.16398009 -259.2461904 191.24991404 -260.41210139 193.3370024 C-264.24159484 200.16635574 -268.09687114 206.98101711 -271.95360529 213.79501021 C-277.67995979 223.91786125 -283.35855984 234.06731777 -289.03563654 244.21786177 C-292.17948316 249.83896114 -295.32489703 255.4591825 -298.47069514 261.0791899 C-299.0506927 262.11607955 -299.63069026 263.15296919 -300.2282635 264.22127974 C-300.77490656 265.19790572 -301.32154963 266.17453169 -301.88475764 267.1807524 C-302.39297053 268.09501997 -302.90118342 269.00928755 -303.4247967 269.95126021 C-304.30918187 271.50911531 -305.218562 273.05337121 -306.16503108 274.57430708 C-308.29384195 277.7573969 -308.29384195 277.7573969 -308.58348811 281.42684615 C-307.81023013 283.55164239 -306.89850498 285.09754405 -305.58007014 286.9307524 C-305.10891779 287.59204146 -304.63776545 288.25333052 -304.15233576 288.93465865 C-303.63864436 289.64235396 -303.12495295 290.35004927 -302.59569514 291.0791899 C-302.06137873 291.82555708 -301.52706233 292.57192427 -300.97655451 293.34090865 C-299.27292099 295.71687251 -297.56031755 298.08614682 -295.84569514 300.4541899 C-294.75703324 301.96191559 -293.66848957 303.46972666 -292.58007014 304.9776274 C-290.95609546 307.22616998 -289.3312826 309.47408537 -287.70409358 311.72030318 C-283.5439799 317.46740483 -279.44603083 323.25608716 -275.36522639 329.05965865 C-271.73114947 334.2198571 -268.04898113 339.3434793 -264.34569514 344.4541899 C-259.63898756 350.94966995 -254.98972141 357.48234924 -250.37621272 364.04427779 C-246.12593939 370.07993239 -241.81095415 376.06749101 -237.47264826 382.0401274 C-236.97055842 382.73235396 -236.46846858 383.42458052 -235.95116389 384.13778365 C-235.22676017 385.11018256 -235.22676017 385.11018256 -234.48772204 386.1022259 C-232.84569514 388.4541899 -232.84569514 388.4541899 -231.42963564 391.02274477 C-228.37768053 396.32256116 -228.37768053 396.32256116 -223.29135478 399.36259711 C-220.13464469 399.69476302 -217.11579498 399.7033602 -213.94286311 399.60531294 C-212.74802648 399.60835684 -211.55318985 399.61140074 -210.32214606 399.61453688 C-207.0206682 399.61293835 -203.7253968 399.56658827 -200.42494285 399.50095975 C-196.8770013 399.44137389 -193.32898158 399.43983529 -189.7806164 399.43131697 C-183.64812242 399.40872526 -177.5168594 399.34964652 -171.38491023 399.26571333 C-162.45047486 399.14358579 -153.5163074 399.07867345 -144.581218 399.02727258 C-130.27065755 398.94362976 -115.96082114 398.81806826 -101.65087092 398.66268599 C-84.7769889 398.47956069 -67.9031434 398.33786544 -51.02867663 398.22167838 C-46.82013879 398.19267583 -42.61161041 398.16244361 -38.40308344 398.13190901 C-37.01196858 398.12182836 -35.62085371 398.11174897 -34.22973883 398.10167086 C-33.54371757 398.09670049 -32.85769632 398.09173012 -32.15088654 398.08660913 C-28.71467441 398.06176581 -25.27846069 398.03714633 -21.84224665 398.01257002 C-21.16598669 398.00773291 -20.48972674 398.0028958 -19.79297405 397.99791211 C-15.70414326 397.96870445 -11.61531073 397.93975084 -7.52647716 397.91093439 C0.60105746 397.85363249 8.72857909 397.79471692 16.85609353 397.73462236 C18.86707173 397.71985882 20.87805189 397.70539325 22.88903272 397.69099295 C38.68612162 397.57724835 54.48179801 397.42110922 70.27776027 397.19964468 C82.03762192 397.03499281 93.79740231 396.9074405 105.55805719 396.81507552 C113.29604559 396.75168832 121.03145379 396.64221965 128.768309 396.49666655 C133.49477924 396.41948686 138.22069841 396.38856486 142.94773138 396.37109816 C145.12390767 396.35382875 147.30003162 396.31761491 149.47553289 396.26073134 C166.66973044 395.82656305 166.66973044 395.82656305 171.56803167 399.79171431 C174.12352798 402.55549786 176.13055404 405.28855924 178.15430486 408.4541899 C179.59393444 410.24026198 181.0499917 412.0133447 182.52930486 413.7666899 C183.62371892 415.12213912 183.62371892 415.12213912 184.74024236 416.50497115 C187.49292253 419.8678733 190.31608807 423.16351668 193.15430486 426.4541899 C197.4252816 431.40881696 201.60195406 436.4245686 205.70899236 441.5166899 C207.63516233 443.83055542 209.59328279 446.08611003 211.59961736 448.3291899 C212.1971784 449.00151656 212.79473943 449.67384322 213.41040838 450.36654341 C214.59523905 451.69485405 215.78820701 453.01596032 216.98999822 454.32894576 C217.80029485 455.23978926 217.80029485 455.23978926 218.62696111 456.16903365 C219.3579804 456.97522139 219.3579804 456.97522139 220.10376775 457.79769576 C221.15430486 459.4541899 221.15430486 459.4541899 221.15430486 463.4541899 C219.99951971 465.76229537 219.99951971 465.76229537 218.36524236 468.3213774 C217.76043035 469.2782646 217.15561834 470.23515181 216.53247869 471.2210356 C215.87143133 472.24672652 215.21038396 473.27241744 214.52930486 474.3291899 C213.85214422 475.39548628 213.17498357 476.46178267 212.47730291 477.56039107 C210.37753906 480.86343701 208.26617722 484.15887675 206.15430486 487.4541899 C204.9227798 489.38971612 203.69225932 491.32588201 202.46289861 493.26278365 C200.14482962 496.91349337 197.82336012 500.56199117 195.49805486 504.20809615 C192.31383254 509.20228779 189.13552646 514.2001481 185.96680486 519.2041899 C185.54052801 519.87490523 185.11425115 520.54562056 184.67505682 521.2366606 C184.24152898 521.92203902 183.80800115 522.60741744 183.36133611 523.3135649 C182.87992162 524.01485518 182.39850713 524.71614546 181.90250432 525.43868697 C180.43500433 527.97000597 179.54754632 530.09442178 178.60024297 532.82545149 C176.42642427 538.30121201 173.97102266 542.89884781 169.15430486 546.4541899 C159.51136365 549.68535092 148.53070284 548.71032207 138.4824115 548.4483794 C134.26962194 548.35859108 130.05708918 548.37405252 125.84352911 548.37739241 C118.6016871 548.36943691 111.36281668 548.29794413 104.12192571 548.18221724 C93.66694868 548.01587406 83.2133019 547.95164344 72.75714374 547.91694725 C60.16506162 547.8748741 47.57326181 547.81681695 34.98159063 547.70519698 C34.02088523 547.69669805 33.06017983 547.68819912 32.07036215 547.67944264 C31.1128988 547.67096157 30.15543546 547.6624805 29.16895807 547.65374243 C7.22523383 547.45978912 -14.71057386 547.45100524 -36.65428889 547.63778365 C-37.74763973 547.64700244 -37.74763973 547.64700244 -38.86307847 547.65640748 C-46.70265263 547.72305654 -54.5421437 547.7970517 -62.38161433 547.87484419 C-70.63704781 547.9565413 -78.89257401 548.02050901 -87.14818537 548.08114302 C-111.61565596 548.26254225 -136.08231589 548.47094549 -160.54811823 548.8138243 C-162.28451702 548.83810967 -164.02091635 548.86235641 -165.75731623 548.88656294 C-167.02120393 548.90418669 -167.02120393 548.90418669 -168.31062472 548.92216647 C-173.99363103 548.99896222 -179.67647686 549.05089733 -185.35985529 549.09017622 C-188.52702097 549.11391259 -191.69417223 549.13913365 -194.86132014 549.1651274 C-195.64205771 549.17121457 -196.42279528 549.17730174 -197.22719157 549.18357337 C-208.28952527 549.27824475 -219.33057384 549.59600392 -230.384009 550.04790652 C-239.07579795 550.39999199 -247.76772568 550.6617673 -256.46415007 550.86889613 C-261.72537187 550.99954432 -266.97523292 551.17688453 -272.22994196 551.47301924 C-304.83535251 553.27410818 -304.83535251 553.27410818 -312.09694636 547.01046431 C-317.59420057 541.28057128 -320.61203125 534.17730882 -323.42603266 526.84182417 C-325.76340382 521.26433038 -329.09109802 516.36319204 -332.40819514 511.3291899 C-333.6534922 509.35018826 -334.89491364 507.36873763 -336.13085139 505.3838774 C-337.04955012 503.91772994 -337.04955012 503.91772994 -337.98680842 502.42196333 C-341.73727531 496.43422029 -345.47938806 490.441252 -349.22313654 484.44930708 C-352.3329186 479.47268475 -355.44457466 474.49725667 -358.56053889 469.5245024 C-365.09554579 459.09027757 -371.59165142 448.63391172 -378.03319514 438.1416899 C-383.55983377 429.14089963 -389.1480523 420.18352767 -394.80272639 411.26278365 C-403.65588497 397.29070954 -412.37865479 383.23746649 -421.03319514 369.1416899 C-426.55986762 360.14092 -432.14805198 351.18352817 -437.80272639 342.26278365 C-446.47049064 328.58329926 -455.0218596 314.8294157 -463.53160822 301.05114424 C-464.57128024 299.36869921 -465.61324562 297.68767206 -466.65526545 296.00668013 C-467.60804377 294.46089278 -467.60804377 294.46089278 -468.58007014 292.8838774 C-469.139201 291.97879439 -469.69833186 291.07371138 -470.27440608 290.14120162 C-470.79293147 289.25448775 -471.31145686 288.36777388 -471.84569514 287.4541899 C-472.46170588 286.46781538 -473.07771662 285.48144087 -473.71239436 284.46517622 C-474.84569514 281.4541899 -474.84569514 281.4541899 -473.98387873 278.68783247 C-473.40976252 277.75092574 -472.83564631 276.814019 -472.24413264 275.84872115 C-471.61458674 274.79322066 -470.98504084 273.73772017 -470.33641779 272.65023482 C-469.28913508 270.97538008 -469.28913508 270.97538008 -468.22069514 269.2666899 C-467.50912349 268.09017435 -466.79999619 266.91217715 -466.09325373 265.73275435 C-464.67728815 263.37554242 -463.25014687 261.02577282 -461.81249201 258.68172896 C-459.29049696 254.54310252 -456.87517861 250.34918188 -454.47069514 246.1416899 C-449.13020731 236.90013864 -443.72007404 227.69916329 -438.31932795 218.49276412 C-426.98352486 199.16904085 -415.7244667 179.8026055 -404.53856623 160.3916899 C-396.85492606 147.05890095 -389.10566737 133.76577264 -381.31932795 120.49276412 C-369.98352486 101.16904085 -358.7244667 81.8026055 -347.53856623 62.3916899 C-341.91142946 52.6273822 -336.26936704 42.87251603 -330.56444514 33.15340865 C-330.18694117 32.51016142 -329.8094372 31.8669142 -329.42049372 31.20417464 C-327.53871732 27.99833207 -325.65550057 24.79334837 -323.77001154 21.58968794 C-323.06865424 20.39609775 -322.36731869 19.20249477 -321.66600764 18.0088774 C-321.0499969 16.96199751 -320.43398615 15.91511763 -319.79930842 14.83651412 C-317.4311367 10.73645775 -315.13361127 6.59942323 -312.84569514 2.4541899 C-246.86517049 1.77037254 -180.88419948 1.30306231 -114.90120101 0.94180173 C-108.87501179 0.9087929 -102.84882561 0.87529641 -96.82264209 0.84126323 C-92.90101499 0.819154 -88.97938632 0.79732937 -85.05775774 0.77548647 C-82.15736721 0.75918276 -79.25697958 0.74241738 -76.35659182 0.72562945 C-66.98331037 0.67242261 -57.61019719 0.63061309 -48.2367779 0.61283553 C-44.63880383 0.60491502 -41.04083329 0.59603312 -37.44286311 0.58651412 C-36.1318751 0.58328747 -36.1318751 0.58328747 -34.79440248 0.57999563 C-23.18914187 0.54630903 -11.59990314 0.34743161 0 0 Z " fill="#000000" transform="translate(1552.8456951379776,580.5458101034164)"/>
<path d="M0 0 C13.2 0 26.4 0 40 0 C40 76.23 40 152.46 40 231 C5.164375 231.061875 5.164375 231.061875 -30.375 231.125 C-41.3585376 231.15231201 -41.3585376 231.15231201 -52.56396484 231.18017578 C-61.5324707 231.18920898 -61.5324707 231.18920898 -65.73623657 231.19088745 C-68.66082824 231.19274439 -71.58534667 231.20021397 -74.50991821 231.21115112 C-78.24963615 231.22494974 -81.98924881 231.2289675 -85.72898984 231.22614455 C-87.73660432 231.22701067 -89.74420737 231.2376957 -91.751791 231.2488575 C-106.65891288 231.2148059 -116.43067101 228.43282641 -127.20703125 217.828125 C-138.34629562 204.5289597 -137.73118972 190.60962334 -137.62890625 174.1171875 C-137.6297361 171.69206638 -137.63219986 169.26694533 -137.63621521 166.84182739 C-137.63906353 161.77670216 -137.62446364 156.71202149 -137.59692383 151.64697266 C-137.56280707 145.17313867 -137.56888114 138.70009708 -137.5875864 132.2262249 C-137.59818142 127.2245937 -137.5891963 122.22314516 -137.57420158 117.22153091 C-137.56904019 114.83504912 -137.56947659 112.44854808 -137.57574654 110.06206894 C-137.58123031 106.72179211 -137.56072232 103.38263006 -137.53344727 100.04248047 C-137.53997314 99.06870453 -137.54649902 98.09492859 -137.55322266 97.09164429 C-137.39572525 85.68003201 -132.81608115 76.89161467 -124.89453125 68.8671875 C-115.24406776 59.8645176 -105.79416482 56.67295234 -92.75024414 56.77294922 C-91.74460419 56.77265717 -90.73896423 56.77236511 -89.70285034 56.77206421 C-86.39686288 56.7734515 -83.09110408 56.78898451 -79.78515625 56.8046875 C-77.4858767 56.80841976 -75.18659555 56.81126573 -72.88731384 56.81326294 C-66.84898452 56.82088258 -60.8107521 56.84051679 -54.77246094 56.8626709 C-47.52034253 56.88677145 -40.26819165 56.89591825 -33.01604462 56.90757751 C-22.01062911 56.92694208 -11.00542604 56.96527648 0 57 C0 38.19 0 19.38 0 0 Z " fill="#020202" transform="translate(1165,1400)"/>
<path d="M0 0 C13.2 0 26.4 0 40 0 C40 76.23 40 152.46 40 231 C16.3225 231.103125 -7.355 231.20625 -31.75 231.3125 C-42.94115723 231.38078003 -42.94115723 231.38078003 -54.35839844 231.45043945 C-63.50830078 231.47302246 -63.50830078 231.47302246 -67.79937744 231.47721863 C-70.77987492 231.48185441 -73.75992168 231.50050004 -76.74029541 231.52787781 C-80.55469135 231.56244695 -84.36844202 231.57240632 -88.18298006 231.56536138 C-90.22630983 231.5675204 -92.26957002 231.59419651 -94.31270981 231.62214375 C-106.76421029 231.55264809 -116.94354622 227.64234158 -126 219 C-134.85872253 209.48727782 -137.14629711 198.53567167 -137.16113281 185.95239258 C-137.16609772 184.94360046 -137.17106262 183.93480835 -137.17617798 182.89544678 C-137.19076876 179.56180129 -137.19759702 176.22820341 -137.203125 172.89453125 C-137.20887963 170.57150776 -137.21463733 168.24848429 -137.22039795 165.92546082 C-137.23089962 161.05406473 -137.23674754 156.18268511 -137.24023438 151.3112793 C-137.24571281 145.08514116 -137.26973068 138.8592224 -137.29820633 132.63315296 C-137.31687981 127.83315913 -137.32204086 123.03321761 -137.32357025 118.23319054 C-137.3265874 115.9387969 -137.33458408 113.64440397 -137.34775543 111.35004616 C-137.36491183 108.13139042 -137.36291199 104.91326365 -137.35644531 101.69458008 C-137.3656601 100.75656052 -137.37487488 99.81854095 -137.3843689 98.85209656 C-137.31918742 88.43543711 -134.41456381 80.17093248 -128 72 C-127.52046875 71.38253906 -127.0409375 70.76507812 -126.546875 70.12890625 C-120.89626492 63.72202765 -111.40131284 58.70572884 -103 57 C-101.53819117 56.9143783 -100.07301674 56.87795974 -98.60870361 56.87974548 C-97.73654709 56.87837082 -96.86439056 56.87699615 -95.96580505 56.87557983 C-95.01706009 56.87917511 -94.06831512 56.88277039 -93.09082031 56.88647461 C-92.08561844 56.88632858 -91.08041656 56.88618256 -90.04475403 56.8860321 C-86.72252239 56.88672872 -83.40034684 56.89450942 -80.078125 56.90234375 C-77.77455679 56.90420882 -75.47098818 56.9056323 -73.16741943 56.90663147 C-67.10442001 56.91044963 -61.04144455 56.92027396 -54.97845459 56.93133545 C-47.70386754 56.9433631 -40.42927249 56.94795515 -33.15467834 56.95378876 C-22.10310224 56.96348606 -11.05157869 56.98264756 0 57 C0 38.19 0 19.38 0 0 Z " fill="#33672C" transform="translate(2429,1400)"/>
<path d="M0 0 C12.87 0 25.74 0 39 0 C39 76.23 39 152.46 39 231 C15.3225 231.103125 -8.355 231.20625 -32.75 231.3125 C-43.94115723 231.38078003 -43.94115723 231.38078003 -55.35839844 231.45043945 C-64.50830078 231.47302246 -64.50830078 231.47302246 -68.79937744 231.47721863 C-71.77987492 231.48185441 -74.75992168 231.50050004 -77.74029541 231.52787781 C-81.55469135 231.56244695 -85.36844202 231.57240632 -89.18298006 231.56536138 C-91.22630983 231.5675204 -93.26957002 231.59419651 -95.31270981 231.62214375 C-107.70485876 231.55297935 -116.92654064 227.96028018 -125.8125 219.31640625 C-134.78416599 209.8160528 -138.62344323 200.14908259 -138.53344727 187.02758789 C-138.54637062 185.47401329 -138.54637062 185.47401329 -138.55955505 183.88905334 C-138.58206883 180.49999263 -138.57550276 177.11176868 -138.56640625 173.72265625 C-138.57164825 171.34573626 -138.57792683 168.96881836 -138.58518982 166.59190369 C-138.59556717 161.62342502 -138.59107064 156.65523324 -138.57641602 151.68676758 C-138.55923238 145.34417493 -138.58273367 139.00248859 -138.61790562 132.65999699 C-138.63994694 127.75522446 -138.63842176 122.85066655 -138.6301403 117.94585991 C-138.62932449 115.60846398 -138.6361165 113.27105171 -138.65091133 110.93370247 C-138.74145702 94.04176511 -137.81034297 80.96663708 -125.37890625 68.35546875 C-115.71075715 59.53579463 -105.4716798 56.67417565 -92.63671875 56.77294922 C-91.12803978 56.77251114 -91.12803978 56.77251114 -89.58888245 56.77206421 C-86.28833166 56.77344951 -82.98801101 56.78897301 -79.6875 56.8046875 C-77.38964969 56.80842047 -75.09179779 56.8112661 -72.79394531 56.81326294 C-66.76385049 56.82087699 -60.73385294 56.84050634 -54.70379639 56.8626709 C-47.45916249 56.88678665 -40.21449597 56.89592091 -32.96983337 56.90757751 C-21.97982139 56.926932 -10.99002258 56.96527029 0 57 C0 38.19 0 19.38 0 0 Z " fill="#010101" transform="translate(1574,1400)"/>
<path d="M0 0 C1.01069046 -0.00350464 2.02138092 -0.00700928 3.06269836 -0.01062012 C6.39033968 -0.0193933 9.71776683 -0.0136029 13.04541016 -0.00683594 C15.3679712 -0.00818406 17.69053196 -0.01012583 20.01309204 -0.01263428 C24.87675671 -0.01557975 29.74034781 -0.01130717 34.60400391 -0.00195312 C40.82342083 0.00942826 47.04266487 0.0028865 53.26207542 -0.00909805 C58.05774221 -0.01634304 62.85336837 -0.01401638 67.64903641 -0.00884247 C69.94145351 -0.00751261 72.23387435 -0.00913032 74.52628708 -0.01380157 C77.73767539 -0.01890876 80.94878832 -0.01109716 84.16015625 0 C85.098629 -0.00404846 86.03710175 -0.00809692 87.00401306 -0.01226807 C100.60050107 0.07430275 111.38213001 4.20621592 121.37353516 13.58300781 C127.27005377 20.33738114 131.80621915 28.63822644 131.85664368 37.72119141 C131.86737663 39.05389824 131.86737663 39.05389824 131.87832642 40.41352844 C131.88101532 41.38082382 131.88370422 42.3481192 131.88647461 43.34472656 C131.89304581 44.36966721 131.899617 45.39460785 131.90638733 46.4506073 C131.92610698 49.845002 131.93778238 53.23935239 131.94775391 56.63378906 C131.95182943 57.79562714 131.95590496 58.95746521 131.96010399 60.1545105 C131.98096284 66.30857159 131.99526324 72.46261043 132.00463867 78.61669922 C132.01567965 84.95371156 132.05005379 91.29037051 132.08981037 97.6272583 C132.11604193 102.51569237 132.12433652 107.40404325 132.12792015 112.2925415 C132.13277216 114.6271604 132.14434628 116.96177593 132.16295815 119.29632568 C132.2910015 136.42729543 131.86638641 149.97002472 119.70947266 163.25878906 C110.45721959 171.39230565 100.65336909 174.87559818 88.45166016 174.77636719 C87.37386292 174.78337646 86.29606567 174.79038574 85.18560791 174.79760742 C81.65162775 174.81509583 78.11845981 174.8035966 74.58447266 174.79003906 C72.1116521 174.79273659 69.63883257 174.79662118 67.16601562 174.80163574 C61.99485124 174.80751843 56.82396408 174.7990071 51.65283203 174.78027344 C45.0422051 174.75748519 38.43222789 174.7706148 31.82162476 174.79456329 C26.71878206 174.80905423 21.61609205 174.80440007 16.51324463 174.79405212 C14.07651695 174.79139397 11.63977516 174.79462231 9.20306396 174.80397034 C5.79076701 174.81418988 2.37950549 174.798558 -1.03271484 174.77636719 C-2.02833435 174.78446411 -3.02395386 174.79256104 -4.04974365 174.80090332 C-15.70528293 174.66129512 -24.5630388 169.76112543 -33.29052734 162.25878906 C-41.44943937 153.84168362 -45.05897552 143.5224102 -44.92163086 131.97924805 C-44.92878616 130.91105835 -44.93594147 129.84286865 -44.9433136 128.74230957 C-44.96008621 125.24605241 -44.94086513 121.7510982 -44.91943359 118.25488281 C-44.92026327 115.80591222 -44.9227264 113.35694169 -44.92674255 110.90797424 C-44.92959268 105.78979618 -44.91497428 100.67205763 -44.88745117 95.55395508 C-44.85335261 89.01171365 -44.85940065 82.47025667 -44.87811375 75.92797756 C-44.88870906 70.87573267 -44.87972307 65.82366861 -44.86472893 60.77144051 C-44.85956651 58.35983887 -44.8600052 55.9482182 -44.86627388 53.53661919 C-44.87175724 50.16031497 -44.85125019 46.78511387 -44.82397461 43.40893555 C-44.83050049 42.42423782 -44.83702637 41.4395401 -44.84375 40.42500305 C-44.68739385 28.97493122 -40.13664818 20.18083354 -32.18505859 12.12597656 C-22.52161853 3.11120115 -13.05650116 -0.05608229 0 0 Z " fill="#437829" transform="translate(2137.29052734375,1456.7412109375)"/>
<path d="M0 0 C1.41026665 -0.00599317 2.82053004 -0.01280052 4.23078918 -0.02035522 C8.04300081 -0.03794355 11.85512251 -0.0427076 15.6673708 -0.0439868 C18.05486536 -0.04541318 20.44233741 -0.04969199 22.82982635 -0.05498123 C31.17546528 -0.07345874 39.52104052 -0.08165482 47.86669922 -0.08007812 C55.61931597 -0.07887777 63.37165386 -0.09996499 71.12420011 -0.13156545 C77.8022139 -0.15780608 84.48013705 -0.16844215 91.15820193 -0.16716731 C95.13691199 -0.1666599 99.11537405 -0.1722194 103.09403229 -0.19352341 C106.84035101 -0.21303747 110.58618851 -0.21294166 114.33252525 -0.19849014 C116.34357948 -0.19543729 118.35463444 -0.21198633 120.36561584 -0.22937012 C134.26073753 -0.13421331 144.99770083 3.87710939 155.19433594 13.35693359 C162.82897266 21.33405869 167.13122944 30.73112248 167.06933594 41.81005859 C167.06683838 42.73149658 167.06434082 43.65293457 167.06176758 44.60229492 C167.05266357 45.75753662 167.04355957 46.91277832 167.03417969 48.10302734 C167.01355469 51.79490234 166.99292969 55.48677734 166.97167969 59.29052734 C153.77167969 59.29052734 140.57167969 59.29052734 126.97167969 59.29052734 C126.64167969 53.68052734 126.31167969 48.07052734 125.97167969 42.29052734 C124.27616421 40.59501187 122.13029353 41.16443807 119.80895996 41.1635437 C118.13044197 41.15931396 118.13044197 41.15931396 116.41801453 41.15499878 C115.17953262 41.15702301 113.94105072 41.15904724 112.66503906 41.16113281 C111.36927444 41.15938049 110.07350983 41.15762817 108.73847961 41.15582275 C105.17452632 41.15124877 101.61060185 41.15303783 98.04664803 41.15620184 C94.32483973 41.15872562 90.60303397 41.15638785 86.88122559 41.15481567 C80.62995966 41.15299403 74.37870554 41.15540015 68.12744141 41.16015625 C60.89006845 41.16559886 53.65272366 41.1638362 46.41535139 41.15832984 C40.21239209 41.15379856 34.0094413 41.15314824 27.80648088 41.15576851 C24.09694996 41.15733121 20.3874323 41.15752527 16.67790222 41.15423203 C12.54469115 41.15081926 8.411529 41.15554329 4.27832031 41.16113281 C3.03983841 41.15910858 1.80135651 41.15708435 0.52534485 41.15499878 C-0.59366714 41.1578186 -1.71267914 41.16063843 -2.86560059 41.1635437 C-4.33345127 41.16410924 -4.33345127 41.16410924 -5.83095551 41.1646862 C-8.00425075 41.04461748 -8.00425075 41.04461748 -9.02832031 42.29052734 C-9.12119292 43.7027778 -9.14578803 45.11961669 -9.1418457 46.53491211 C-9.14177017 47.43577042 -9.14169464 48.33662872 -9.14161682 49.26478577 C-9.13645554 50.24394455 -9.13129425 51.22310333 -9.12597656 52.23193359 C-9.12385414 53.7280442 -9.12385414 53.7280442 -9.12168884 55.25437927 C-9.11607146 58.45395858 -9.10351602 61.65346903 -9.09082031 64.85302734 C-9.08580755 67.01643779 -9.08124426 69.17984934 -9.07714844 71.34326172 C-9.06609638 76.6590406 -9.04934135 81.97477905 -9.02832031 87.29052734 C-8.31178378 87.2919939 -7.59524725 87.29346046 -6.85699749 87.29497147 C10.61349063 87.33209441 28.08376791 87.39118157 45.55409718 87.47443008 C54.00278333 87.51416481 62.45137709 87.54658548 70.90014648 87.56152344 C78.26789037 87.57456892 85.63543048 87.60160707 93.00305957 87.64514041 C96.90077426 87.66769047 100.79823823 87.68344193 104.69602394 87.68241119 C108.3725452 87.68166073 112.0485136 87.69976453 115.72489166 87.73169518 C117.70156011 87.74413803 119.67832172 87.73716037 121.65501404 87.72938538 C133.43070349 87.86574045 142.68524144 91.03439404 151.97167969 98.29052734 C152.58785156 98.76876953 153.20402344 99.24701172 153.83886719 99.73974609 C160.62561827 105.72716871 165.53712923 115.40357259 166.97167969 124.29052734 C167.07354379 126.08670466 167.12951027 127.88585317 167.14868164 129.68481445 C167.16793449 131.26817848 167.16793449 131.26817848 167.18757629 132.88352966 C167.19496323 134.01686234 167.20235016 135.15019501 167.20996094 136.31787109 C167.21803268 137.4983754 167.22610443 138.6788797 167.23442078 139.89515686 C167.24824268 142.39582866 167.25897329 144.89651919 167.2668457 147.3972168 C167.27832904 149.93503409 167.29872231 152.47282794 167.32836914 155.01049805 C167.7456094 190.74631041 167.7456094 190.74631041 154.97167969 204.29052734 C143.89172697 214.11177094 133.74891573 216.89833006 119.16552734 216.82397461 C117.69584798 216.83104576 116.22617588 216.83979576 114.7565155 216.8500824 C110.7914315 216.87245446 106.82674897 216.86966519 102.86162615 216.86076093 C99.53934449 216.85562519 96.21713658 216.86296459 92.89486253 216.870233 C85.05061011 216.8871939 77.20655239 216.88370542 69.36230469 216.86694336 C61.29714192 216.85003092 53.23252078 216.8658529 45.16741717 216.89816624 C38.21757583 216.92494586 31.26790221 216.9321155 24.3180145 216.92365116 C20.17834471 216.91874561 16.03900042 216.92080756 11.8993721 216.94143867 C8.00352909 216.95992785 4.10845868 216.95367806 0.21265602 216.92923927 C-1.20780881 216.92427268 -2.62833387 216.9276118 -4.04874992 216.94038773 C-17.34593156 217.05042378 -27.2277556 213.94660461 -36.84082031 204.61083984 C-46.60944926 194.24911557 -49.68745495 184.8929127 -49.27832031 170.66552734 C-49.19582031 166.58177734 -49.11332031 162.49802734 -49.02832031 158.29052734 C-36.15832031 158.29052734 -23.28832031 158.29052734 -10.02832031 158.29052734 C-9.69832031 163.90052734 -9.36832031 169.51052734 -9.02832031 175.29052734 C35.52167969 175.62052734 80.07167969 175.95052734 125.97167969 176.29052734 C125.97167969 161.11052734 125.97167969 145.93052734 125.97167969 130.29052734 C124.24244702 128.56129468 121.91592287 129.15836129 119.55908203 129.15249634 C118.38431808 129.147043 117.20955414 129.14158966 115.99919128 129.13597107 C114.69847183 129.13492874 113.39775238 129.13388641 112.05761719 129.1328125 C110.68292579 129.12814644 109.30823594 129.12300322 107.93354797 129.11741638 C104.96517074 129.10611402 101.99680367 129.09768991 99.02841187 129.09129715 C94.32953134 129.08062961 89.63072316 129.06038527 84.93188477 129.03817749 C71.56709124 128.97622056 58.20230055 128.92232315 44.83740234 128.88916016 C37.46201639 128.87077861 30.08675028 128.84179271 22.71145248 128.80115545 C18.80937461 128.78013325 14.90744753 128.76463511 11.00531006 128.76234818 C7.32805679 128.76019078 3.65111669 128.74421113 -0.02604103 128.71795845 C-2.00786717 128.70741039 -3.98975461 128.71150269 -5.97160339 128.71614075 C-19.37727795 128.59193948 -28.46974075 124.64980856 -38.27832031 115.54052734 C-42.3481847 111.31662426 -44.76808475 106.66077696 -47.02832031 101.29052734 C-47.37180511 100.5437825 -47.71528992 99.79703766 -48.06918335 99.02766418 C-49.1606448 95.91290639 -49.32207788 93.39922276 -49.38232422 90.10180664 C-49.40799469 88.87249924 -49.43366516 87.64319183 -49.46011353 86.37663269 C-49.47646506 85.03935386 -49.4913493 83.70205641 -49.50488281 82.36474609 C-49.51303387 81.68321787 -49.52118492 81.00168964 -49.52958298 80.29950905 C-49.57123821 76.68251412 -49.59985419 73.06566878 -49.61865234 69.44848633 C-49.63627 66.48702361 -49.67776413 63.52746973 -49.74169922 60.56665039 C-50.13018615 42.19233441 -50.25495915 26.94661074 -37.77832031 12.22802734 C-26.16177333 2.12668214 -14.86991967 -0.01030213 0 0 Z " fill="#010101" transform="translate(469.0283203125,1414.70947265625)"/>
<path d="M0 0 C18.04649043 -0.06785703 36.09287109 -0.12306306 54.13945389 -0.15543652 C62.51977371 -0.17087108 70.90000832 -0.19189496 79.28027344 -0.22631836 C86.58895769 -0.25632561 93.89758019 -0.27559976 101.20632434 -0.28226548 C105.07223074 -0.28615866 108.93796059 -0.29523604 112.80381012 -0.31719017 C116.45144029 -0.33773484 120.09882319 -0.34379801 123.74650574 -0.33932304 C125.70516129 -0.34052642 127.66379065 -0.35657359 129.62237549 -0.3732605 C143.50094442 -0.32534405 155.00678108 2.51727237 165.32421875 12.17578125 C172.38057897 19.7277823 177.25929414 28.53598544 177.24050903 39.07443237 C177.24463303 40.86639793 177.24463303 40.86639793 177.24884033 42.69456482 C177.2380545 44.63988853 177.2380545 44.63988853 177.22705078 46.62451172 C177.22648617 48.01454154 177.2268042 49.40457196 177.22793579 50.79460144 C177.22850836 54.55657548 177.21676963 58.31842134 177.20278788 62.08036566 C177.1902645 66.01614573 177.18910875 69.95192891 177.18673706 73.88772583 C177.18052701 81.3355322 177.16412263 88.78327968 177.14403808 96.23106015 C177.12166429 104.71228719 177.11068193 113.19351708 177.10064721 121.6747663 C177.07975598 139.1165449 177.04458925 156.55826622 177 174 C158.5624055 174.09364995 140.12487317 174.16408008 121.68709183 174.20724869 C113.12513504 174.22782988 104.56332647 174.25586494 96.00146484 174.30175781 C88.534567 174.34176226 81.06777657 174.36746507 73.60077453 174.37635398 C69.65097355 174.38154583 65.7014797 174.3936545 61.75177765 174.42292023 C58.02530491 174.45030518 54.29926241 174.45839911 50.57269859 174.45243073 C48.57107902 174.45403595 46.56950504 174.47543688 44.56800842 174.49768066 C31.47720595 174.43866562 21.43046297 171.20164758 12 162 C3.59867168 153.05040842 -0.13519935 143.11723186 -0.11352539 130.91479492 C-0.11364593 130.21042706 -0.11376646 129.50605921 -0.11389065 128.78034687 C-0.11314778 126.51368804 -0.10554824 124.24711275 -0.09765625 121.98046875 C-0.09618489 120.57572469 -0.09516537 119.17098007 -0.09460449 117.76623535 C-0.08937411 112.57331518 -0.07541285 107.38040676 -0.0625 102.1875 C-0.041875 90.575625 -0.02125 78.96375 0 67 C45.54 67 91.08 67 138 67 C137.67 58.09 137.34 49.18 137 40 C91.79 40 46.58 40 0 40 C0 26.8 0 13.6 0 0 Z " fill="#020202" transform="translate(1236,1457)"/>
<path d="M0 0 C0.99626404 -0.00511093 1.99252808 -0.01022186 3.01898193 -0.01548767 C6.29429223 -0.0293239 9.56939061 -0.02843103 12.84472656 -0.02612305 C15.1362516 -0.03001392 17.42777592 -0.03434939 19.71929932 -0.03910828 C24.51731709 -0.04655818 29.31526127 -0.04628859 34.11328125 -0.04101562 C40.23714657 -0.03522997 46.36070855 -0.0521364 52.48452377 -0.0753603 C57.2168349 -0.09015312 61.94907396 -0.09096167 66.68140411 -0.08785057 C68.93785451 -0.08836123 71.19430921 -0.09355066 73.450737 -0.10366249 C91.20423466 -0.17344894 106.06918144 0.35687711 119.92285156 12.7746582 C128.26355587 21.55613143 131.8703716 32.4735596 131.84887695 44.3815918 C131.84899749 45.076168 131.84911802 45.77074421 131.84924221 46.48636818 C131.84850101 48.71531093 131.84090922 50.94416808 131.83300781 53.1730957 C131.83153593 54.55696574 131.83051674 55.94083633 131.82995605 57.32470703 C131.82473166 62.43303263 131.81077039 67.54134627 131.79785156 72.6496582 C131.77722656 84.0759082 131.75660156 95.5021582 131.73535156 107.2746582 C86.19535156 107.2746582 40.65535156 107.2746582 -6.26464844 107.2746582 C-5.93464844 116.5146582 -5.60464844 125.7546582 -5.26464844 135.2746582 C39.94535156 135.2746582 85.15535156 135.2746582 131.73535156 135.2746582 C131.73535156 148.1446582 131.73535156 161.0146582 131.73535156 174.2746582 C113.00240159 174.36507155 94.26962921 174.43870584 75.53651619 174.48190689 C66.83774103 174.50250209 58.13911141 174.53056425 49.44042969 174.57641602 C41.85562376 174.61637724 34.27092329 174.64211312 26.68601501 174.65101218 C22.67256414 174.65621128 18.65941484 174.66836692 14.64606094 174.69757843 C10.86214179 174.7248947 7.07864608 174.73307084 3.29463768 174.72708893 C1.25685069 174.72869992 -0.78089106 174.75013734 -2.81855774 174.77233887 C-16.05623637 174.71334266 -24.78149098 170.51690919 -34.20605469 161.39575195 C-43.27721378 151.69764451 -45.41054633 141.99195801 -45.42578125 129.09765625 C-45.43074615 128.08711182 -45.43571106 127.07656738 -45.44082642 126.03540039 C-45.45539521 122.70238557 -45.46224089 119.36941834 -45.46777344 116.03637695 C-45.4735288 113.71238708 -45.47928648 111.38839721 -45.48504639 109.06440735 C-45.49554104 104.19479146 -45.5013939 99.32519201 -45.50488281 94.45556641 C-45.5103673 88.22823774 -45.53440109 82.00112772 -45.56285477 75.77386761 C-45.58151399 70.97391634 -45.58668848 66.17401744 -45.58821869 61.37403297 C-45.5912378 59.07881282 -45.59924118 56.78359343 -45.61240387 54.48840904 C-45.6295344 51.272053 -45.62756695 48.0562274 -45.62109375 44.83984375 C-45.63030853 43.89979996 -45.63952332 42.95975616 -45.64901733 41.9912262 C-45.58027055 31.03960312 -41.69144519 21.12047317 -34.19042969 13.0402832 C-23.93541442 3.51904739 -13.83228134 -0.03705237 0 0 Z " fill="#24572E" transform="translate(2539.2646484375,1456.725341796875)"/>
<path d="M0 0 C0.88157272 -0.00571014 1.76314545 -0.01142029 2.6714325 -0.01730347 C3.6361145 -0.01842133 4.60079651 -0.01953918 5.5947113 -0.02069092 C6.61296494 -0.02565582 7.63121857 -0.03062073 8.68032837 -0.03573608 C12.05731376 -0.05036881 15.43425211 -0.05716308 18.81126404 -0.06268311 C21.15956626 -0.06843551 23.50786846 -0.07419324 25.85617065 -0.07995605 C30.78659789 -0.09047048 35.71700881 -0.09630965 40.64744568 -0.09979248 C46.94986858 -0.10526518 53.25207413 -0.12926531 59.55442905 -0.15776443 C64.40932838 -0.17643981 69.26417599 -0.18159912 74.1191082 -0.18312836 C76.44141256 -0.18614649 78.76371619 -0.19414652 81.08598518 -0.20731354 C84.34556928 -0.22446925 87.60463097 -0.22246992 90.86424255 -0.21600342 C92.29001114 -0.22982559 92.29001114 -0.22982559 93.74458313 -0.243927 C106.2420692 -0.16670574 116.77598921 4.33306002 125.93235779 12.82794189 C136.97478126 24.5186048 137.98516976 37.17683143 137.87767029 52.45294189 C137.87472471 53.85463298 137.87268744 55.25632628 137.87156677 56.65802002 C137.86113912 61.81886116 137.83321664 66.97965501 137.80735779 72.14044189 C137.76610779 83.69044189 137.72485779 95.24044189 137.68235779 107.14044189 C92.14235779 107.14044189 46.60235779 107.14044189 -0.31764221 107.14044189 C0.01235779 116.38044189 0.34235779 125.62044189 0.68235779 135.14044189 C45.89235779 135.14044189 91.10235779 135.14044189 137.68235779 135.14044189 C137.68235779 148.01044189 137.68235779 160.88044189 137.68235779 174.14044189 C118.94940781 174.23085524 100.21663543 174.30448954 81.48352242 174.34769058 C72.78474726 174.36828578 64.08611764 174.39634794 55.38743591 174.44219971 C47.80262999 174.48216093 40.21792951 174.50789681 32.63302124 174.51679587 C28.61957036 174.52199497 24.60642106 174.53415061 20.59306717 174.56336212 C16.80914802 174.59067839 13.0256523 174.59885453 9.24164391 174.59287262 C7.20385691 174.59448361 5.16611517 174.61592103 3.12844849 174.63812256 C-10.15883938 174.57890526 -18.7384326 170.33840354 -28.25904846 161.29669189 C-37.42801634 151.63263935 -39.45237642 140.85868061 -39.51051331 128.01104736 C-39.5186908 127.00532181 -39.52686829 125.99959625 -39.53529358 124.96339417 C-39.56004461 121.64481181 -39.5766381 118.32627197 -39.59107971 115.00762939 C-39.59640339 113.86969059 -39.60172707 112.73175179 -39.60721207 111.55932999 C-39.63390016 105.53494186 -39.65328812 99.51057414 -39.66773987 93.48614502 C-39.68106905 88.51623084 -39.70891009 83.54672818 -39.74977112 78.57696533 C-39.79923686 72.55940033 -39.82387792 66.542208 -39.83096695 60.52444839 C-39.83765468 58.2400518 -39.85281152 55.95566272 -39.87685776 53.6713829 C-40.02849221 38.39429536 -39.6232991 26.47057513 -29.39576721 14.24200439 C-23.01561363 7.78989419 -16.10890477 3.35657266 -7.31764221 1.14044189 C-4.5393779 0.21435379 -2.8682689 0.01113962 0 0 Z " fill="#010101" transform="translate(706.3176422119141,1456.8595581054688)"/>
<path d="M0 0 C1.11765593 -0.00256327 1.11765593 -0.00256327 2.25789076 -0.00517833 C4.737584 -0.00845469 7.21700251 0.00249961 9.69667053 0.01345825 C11.48093154 0.01402277 13.265193 0.01370502 15.04945374 0.01257324 C19.88157065 0.0120003 24.71358792 0.02374512 29.54568172 0.03772116 C34.5998768 0.0502383 39.65407427 0.05139979 44.70828247 0.05377197 C54.27392411 0.05998384 63.83951993 0.07639072 73.40514141 0.09647095 C84.29747219 0.11883905 95.18980517 0.12982568 106.0821532 0.13986182 C128.48371951 0.16075719 150.88522303 0.19742979 173.28675842 0.24050903 C173.28675842 13.44050903 173.28675842 26.64050903 173.28675842 40.24050903 C168.19343079 40.25509155 163.10010315 40.26967407 157.85243225 40.28469849 C141.04863579 40.33497204 124.24493216 40.4014031 107.44122791 40.47622395 C97.2503443 40.52120383 87.0594958 40.56061345 76.86854553 40.58694458 C67.9868875 40.60990689 59.1053404 40.64328512 50.22377032 40.68921059 C45.52033664 40.71316666 40.81701299 40.73187981 36.11351967 40.73812294 C31.68693145 40.74416302 27.26062483 40.76412378 22.83414078 40.79478455 C21.20919054 40.80358207 19.58420352 40.80728381 17.95923042 40.8055172 C15.74046892 40.80386657 13.52256805 40.82054443 11.30392456 40.84178162 C10.06226941 40.84639058 8.82061426 40.85099955 7.5413332 40.85574818 C4.00687836 41.27359689 2.11119213 42.11269657 -0.71324158 44.24050903 C-1.95612131 46.72626851 -1.83906948 48.38012401 -1.84022522 51.16162109 C-1.84304504 52.20194489 -1.84586487 53.24226868 -1.84877014 54.31411743 C-1.84674591 55.46013428 -1.84472168 56.60615112 -1.84263611 57.78689575 C-1.84438843 58.99020538 -1.84614075 60.19351501 -1.84794617 61.43328857 C-1.85160093 64.73914035 -1.85073316 68.04492978 -1.84756708 71.3507781 C-1.84503923 74.80825479 -1.84738232 78.26572878 -1.84895325 81.72320557 C-1.85077418 87.53220092 -1.84837113 93.34118357 -1.84361267 99.150177 C-1.83817531 105.86548567 -1.83992918 112.58076396 -1.84543908 119.29607189 C-1.84997847 125.059187 -1.85061655 130.82229296 -1.84800041 136.58540928 C-1.84644153 140.02841955 -1.84623313 143.47141555 -1.8495369 146.9144249 C-1.8529642 150.75473967 -1.84821232 154.59502049 -1.84263611 158.43533325 C-1.84466034 159.57730164 -1.84668457 160.71927002 -1.84877014 161.89584351 C-1.84595032 162.94180695 -1.84313049 163.98777039 -1.84022522 165.06542969 C-1.83984819 165.97356352 -1.83947117 166.88169735 -1.83908272 167.81735039 C-1.7206466 170.0979202 -1.35459421 172.05529402 -0.71324158 174.24050903 C2.94700922 175.38564148 6.40207985 175.37900996 10.22163391 175.39872742 C10.91925551 175.40366539 11.61687711 175.40860337 12.33563876 175.41369098 C14.67253305 175.42904539 17.00939991 175.43742101 19.34632874 175.4458313 C21.02177674 175.45541144 22.69722234 175.4654216 24.37266541 175.47583008 C28.92185481 175.50287045 33.47105459 175.52388473 38.02027988 175.54383206 C42.77422538 175.56569694 47.52813897 175.59308318 52.28205872 175.61988831 C61.28464693 175.66980838 70.28725287 175.71474977 79.28987575 175.75791067 C89.53888768 175.80728888 99.78786759 175.86220485 110.03684855 175.91759026 C131.12012343 176.03139981 152.20342776 176.13751004 173.28675842 176.24050903 C173.28675842 189.44050903 173.28675842 202.64050903 173.28675842 216.24050903 C149.59922479 216.33086906 125.9118311 216.40452587 102.22416878 216.44775772 C91.22511237 216.46836624 80.2261708 216.49645421 69.22718811 216.54226685 C59.63834933 216.58218689 50.04959374 216.60795428 40.46067417 216.61686301 C35.38531562 216.62206899 30.31019502 216.63426938 25.23491287 216.66342926 C20.45295352 216.69067997 15.67132902 216.69893455 10.88929939 216.69293976 C9.13901891 216.69403568 7.38872665 216.70193186 5.63851357 216.71733093 C-3.45846515 216.79341011 -11.51415384 216.73451609 -19.71324158 212.24050903 C-20.60398376 211.77129028 -21.49472595 211.30207153 -22.41246033 210.81863403 C-32.39045747 204.15356718 -39.04345939 195.2158775 -42.2854805 183.56809235 C-43.27359056 178.19147301 -43.00835606 172.66734987 -43.00376892 167.2180481 C-43.0097601 165.79645436 -43.016567 164.37486386 -43.02412415 162.95327759 C-43.04173316 159.10595124 -43.04647741 155.25871396 -43.04775572 151.4113512 C-43.04918097 149.00293118 -43.05345768 146.59453353 -43.05875015 144.18611908 C-43.07723482 135.77031527 -43.08542288 127.35457466 -43.08384705 118.93875122 C-43.08264664 111.1162679 -43.10373302 103.29406094 -43.13533437 95.4716475 C-43.1615612 88.73761911 -43.17221164 82.00368061 -43.17093623 75.26960158 C-43.1704284 71.25569793 -43.17601161 67.24203996 -43.19729233 63.22818756 C-43.21678279 59.44905538 -43.21672635 55.6704005 -43.20225906 51.89125061 C-43.19920061 49.85971744 -43.21577213 47.82818366 -43.23313904 45.79672241 C-43.14106052 32.25797513 -38.9441752 21.77056401 -29.54136658 11.97879028 C-20.97592664 3.98930234 -11.86609613 -0.10108345 0 0 Z " fill="#578D26" transform="translate(1889.7132415771484,1414.7594909667969)"/>
<path d="M0 0 C12.87 0 25.74 0 39 0 C39.33 44.55 39.66 89.1 40 135 C88.015 134.505 88.015 134.505 137 134 C137 89.78 137 45.56 137 0 C150.2 0 163.4 0 177 0 C177.11313182 17.89884645 177.20512577 35.79738487 177.25906086 53.69649029 C177.28477623 62.00848433 177.31979806 70.32023945 177.37719727 78.63208008 C177.42723772 85.88181139 177.4593394 93.13136956 177.47044247 100.3812688 C177.4769266 104.21548942 177.49202406 108.04921499 177.52865028 111.88327599 C177.56293767 115.50229896 177.57298829 119.12062951 177.56553841 122.7397995 C177.56754033 124.6804291 177.59426242 126.62098567 177.62210083 128.56141663 C177.54682238 141.56655413 173.06273939 153.31499282 164.2265625 162.9296875 C156.86199776 169.93353886 147.49266663 174.08211939 137.30345154 174.15390015 C136.38836319 174.16250061 135.47327484 174.17110107 134.53045654 174.17996216 C133.04282806 174.18635208 133.04282806 174.18635208 131.52514648 174.19287109 C129.94362541 174.20513733 129.94362541 174.20513733 128.33015442 174.21765137 C124.84380654 174.24244461 121.35749929 174.25900784 117.87109375 174.2734375 C116.67707506 174.27876118 115.48305637 174.28408485 114.2528553 174.28956985 C107.93021411 174.31627777 101.60759248 174.33565843 95.28491211 174.35009766 C90.06565778 174.36342307 84.84679566 174.39125434 79.62768555 174.43212891 C73.31301881 174.48157725 66.99870713 174.50623396 60.68385506 174.51332474 C58.28502589 174.52001634 55.886204 174.53518338 53.48748589 174.55921555 C36.66159536 174.71814471 23.79680327 174.18500391 11 162 C1.70479713 152.19547095 -0.75143972 140.73850958 -0.56762695 127.60253906 C-0.56621284 126.20177257 -0.56701553 124.80100239 -0.56983948 123.40023804 C-0.57126093 119.63627221 -0.54208082 115.87312006 -0.50696969 112.10934162 C-0.47549117 108.16162164 -0.47275866 104.21387838 -0.46684265 100.26605225 C-0.45136681 92.80767129 -0.41042429 85.34966136 -0.3600952 77.89144301 C-0.3040055 69.39319283 -0.27666615 60.89492396 -0.25161803 52.39653444 C-0.1995018 34.93077055 -0.10788969 17.46551457 0 0 Z " fill="#020202" transform="translate(1638,1457)"/>
<path d="M0 0 C1.00607803 -0.00043808 2.01215607 -0.00087616 3.04872131 -0.00132751 C6.33851261 0.00074453 9.62777939 0.02400049 12.91748047 0.04760742 C15.21247072 0.05320901 17.50746458 0.05747645 19.80245972 0.06047058 C25.8161424 0.07187497 31.82960457 0.10130412 37.84320068 0.13458252 C43.99032611 0.16537862 50.13748748 0.17899626 56.28466797 0.1940918 C68.32644665 0.22617818 80.3680044 0.27891 92.40966797 0.34057617 C92.40966797 13.21057617 92.40966797 26.08057617 92.40966797 39.34057617 C88.06319092 39.37030518 88.06319092 39.37030518 83.62890625 39.40063477 C74.07344307 39.46743073 64.51809042 39.5450715 54.9627552 39.62810326 C49.16725195 39.67812827 43.37176748 39.72445762 37.57617188 39.76245117 C31.98698406 39.79922574 26.39795108 39.84556403 20.80889511 39.89863968 C18.67260316 39.91722538 16.53627797 39.93231775 14.39993668 39.94392014 C11.41620143 39.96071134 8.43282408 39.98972866 5.44921875 40.02172852 C4.11349823 40.0249688 4.11349823 40.0249688 2.75079346 40.02827454 C-1.90093027 39.87436283 -1.90093027 39.87436283 -5.59033203 42.34057617 C-5.90513945 44.74868135 -5.90513945 44.74868135 -5.86880493 47.59231567 C-5.87996841 48.70573334 -5.8911319 49.819151 -5.90263367 50.96630859 C-5.90479385 52.19341553 -5.90695404 53.42052246 -5.90917969 54.68481445 C-5.92424812 56.6164595 -5.92424812 56.6164595 -5.93962097 58.58712769 C-5.96698685 62.1240738 -5.98208976 65.66097994 -5.995049 69.19800425 C-6.01065085 72.89229336 -6.03745038 76.5865005 -6.06307983 80.2807312 C-6.10991997 87.27882898 -6.14663866 94.27694209 -6.17975271 101.2751168 C-6.21793721 109.24120484 -6.26735692 117.20721066 -6.31773686 125.17322946 C-6.42113457 141.56229168 -6.50888602 157.95138792 -6.59033203 174.34057617 C-19.46033203 174.34057617 -32.33033203 174.34057617 -45.59033203 174.34057617 C-45.70346071 156.31134604 -45.795456 138.28242166 -45.84939289 120.25293446 C-45.87510904 111.88040722 -45.9101324 103.50811714 -45.9675293 95.13574219 C-46.01756733 87.83327318 -46.04967087 80.53097603 -46.06077451 73.22834033 C-46.06725904 69.36617563 -46.08235915 65.50450236 -46.11898232 61.64249611 C-46.1532658 57.99720962 -46.16332107 54.35261053 -46.15587044 50.70717812 C-46.15787268 48.7522358 -46.18459682 46.79736601 -46.21243286 44.84262085 C-46.134672 31.31342728 -41.86094908 21.39327369 -32.42236328 11.94213867 C-22.72328858 3.03236798 -13.08420486 -0.15220884 0 0 Z " fill="#010101" transform="translate(918.59033203125,1456.659423828125)"/>
<path d="M0 0 C1.38791245 -0.00262848 1.38791245 -0.00262848 2.80386353 -0.00531006 C5.87243507 -0.00972333 8.94094932 -0.00679265 12.00952148 -0.00341797 C14.13419099 -0.0040911 16.25886042 -0.0050612 18.38352966 -0.00631714 C22.83984102 -0.00779335 27.29613237 -0.00564178 31.75244141 -0.00097656 C37.47838462 0.00472413 43.20428101 0.00143907 48.93022251 -0.00454903 C53.31809343 -0.00815374 57.70595314 -0.00701653 62.09382439 -0.00442123 C64.20585066 -0.0037519 66.31787793 -0.00458062 68.42990303 -0.00690079 C71.3751713 -0.00942622 74.32036251 -0.00558843 77.265625 0 C78.58799919 -0.00303635 78.58799919 -0.00303635 79.93708801 -0.00613403 C85.95385215 0.01513145 85.95385215 0.01513145 87.06811523 1.12939453 C87.16868215 4.01545469 87.20426899 6.87762028 87.19750977 9.76416016 C87.20013824 11.12259285 87.20013824 11.12259285 87.20281982 12.50846863 C87.20723977 15.51754646 87.20429985 18.52656605 87.20092773 21.53564453 C87.20160073 23.61690278 87.20257072 25.69816096 87.2038269 27.77941895 C87.20530407 32.14754991 87.20314872 36.51566046 87.19848633 40.88378906 C87.19278903 46.49654006 87.19606794 52.10924325 87.20205879 57.72199249 C87.2056639 62.02150842 87.20452605 66.32101292 87.201931 70.62052917 C87.20126159 72.69068914 87.20209064 74.76085013 87.20441055 76.83100891 C87.20693625 79.7189104 87.20309766 82.60673331 87.19750977 85.49462891 C87.199534 86.35908127 87.20155823 87.22353363 87.2036438 88.11418152 C87.18237761 94.01513216 87.18237761 94.01513216 86.06811523 95.12939453 C83.0851331 95.22467673 80.12535178 95.25491628 77.14208984 95.24291992 C76.20560104 95.24306595 75.26911224 95.24321198 74.304245 95.24336243 C71.19295984 95.2426629 68.08173374 95.23486868 64.97045898 95.22705078 C62.81954481 95.22518674 60.66863021 95.22376277 58.51771545 95.22276306 C52.84429766 95.21893678 47.17090528 95.20910555 41.49749756 95.19805908 C35.71309757 95.18784733 29.9286935 95.18326595 24.14428711 95.17822266 C12.78555195 95.16748338 1.4268357 95.15040564 -9.93188477 95.12939453 C-11.59064273 91.8118786 -11.0607778 88.103424 -11.04541016 84.45703125 C-11.0456292 83.11060043 -11.0456292 83.11060043 -11.04585266 81.73696899 C-11.0451543 78.76098235 -11.03736544 75.78505778 -11.02954102 72.80908203 C-11.02767657 70.7492781 -11.02625279 68.68947372 -11.0252533 66.62966919 C-11.02143024 61.20122051 -11.01160175 55.77279848 -11.00054932 50.34436035 C-10.99033065 44.80786499 -10.9857547 39.27136534 -10.98071289 33.73486328 C-10.96997931 22.86636198 -10.95290541 11.99788047 -10.93188477 1.12939453 C-7.55252868 -0.56028351 -3.7168233 -0.00855396 0 0 Z " fill="#FEFEFE" transform="translate(1077.931884765625,1496.87060546875)"/>
<path d="M0 0 C0.88158279 0.00202423 1.76316559 0.00404846 2.67146301 0.00613403 C3.59498566 0.00438171 4.5185083 0.00262939 5.47001648 0.00082397 C8.53921865 -0.00359656 11.60836372 -0.0006556 14.67756653 0.00271606 C16.80126964 0.00204303 18.92497269 0.001073 21.04867554 -0.00018311 C25.50676708 -0.0016604 29.96483863 0.00049527 34.42292786 0.00515747 C40.14768028 0.01085131 45.8723858 0.00757813 51.5971365 0.00158501 C55.98505 -0.00202271 60.37295233 -0.00088099 64.76086617 0.0017128 C66.87206592 0.00238166 68.98326667 0.00155505 71.09446526 -0.00076675 C74.04203365 -0.00329633 76.98952535 0.00055183 79.93708801 0.00613403 C81.25642586 0.00309769 81.25642586 0.00309769 82.60241699 0 C88.64044661 0.02126548 88.64044661 0.02126548 90.86897278 1.13552856 C90.91523916 13.09628092 90.95081292 25.05701212 90.97259712 37.01783562 C90.98305051 42.57125882 90.99723801 48.12462097 91.01985168 53.67800903 C91.04152469 59.03368864 91.05352967 64.38930939 91.05872726 69.74502945 C91.06243301 71.79204358 91.06966902 73.83905436 91.08043289 75.88604355 C91.0948742 78.74515589 91.09695382 81.60402256 91.09602356 84.46316528 C91.10321411 85.31624268 91.11040466 86.16932007 91.11781311 87.04824829 C91.0970771 92.90742424 91.0970771 92.90742424 88.86897278 95.13552856 C85.86114548 95.32916982 82.94569703 95.39767051 79.93708801 95.37844849 C79.01181305 95.38034683 78.08653809 95.38224518 77.13322449 95.38420105 C74.06458656 95.3879159 70.99618354 95.37719529 67.92756653 95.36599731 C65.80289742 95.3648059 63.67822778 95.36435227 61.55355835 95.36460876 C57.09722098 95.36304272 52.64096381 95.35474323 48.18464661 95.34133911 C42.45869761 95.3243388 36.73283677 95.32052499 31.0068655 95.32128429 C26.61898957 95.32101301 22.2311331 95.31553871 17.84326363 95.30828285 C15.73123891 95.30509014 13.61921198 95.30312738 11.50718498 95.30238914 C8.56190572 95.30023253 5.61672193 95.29150338 2.67146301 95.28079224 C1.34908882 95.28147202 1.34908882 95.28147202 0 95.28216553 C-6.01655317 95.25000261 -6.01655317 95.25000261 -7.13102722 94.13552856 C-7.23159414 91.24946841 -7.26718097 88.38730282 -7.26042175 85.50076294 C-7.26217407 84.59514114 -7.26392639 83.68951935 -7.26573181 82.75645447 C-7.27015176 79.74737664 -7.26721184 76.73835705 -7.26383972 73.72927856 C-7.26451272 71.64802031 -7.26548271 69.56676213 -7.26673889 67.48550415 C-7.26821606 63.11737319 -7.2660607 58.74926263 -7.26139832 54.38113403 C-7.25570102 48.76838303 -7.25897993 43.15567985 -7.26497078 37.5429306 C-7.26857589 33.24341468 -7.26743804 28.94391018 -7.26484299 24.64439392 C-7.26417358 22.57423395 -7.26500262 20.50407296 -7.26732254 18.43391418 C-7.26984824 15.5460127 -7.26600964 12.65818979 -7.26042175 9.77029419 C-7.26244598 8.90584183 -7.26447021 8.04138947 -7.26655579 7.15074158 C-7.24118415 0.11061098 -7.02977245 0.02484583 0 0 Z " fill="#FEFEFE" transform="translate(2139.1310272216797,1496.8644714355469)"/>
<path d="M0 0 C1.32237419 0.00067978 1.32237419 0.00067978 2.67146301 0.00137329 C4.05674698 -0.00366463 4.05674698 -0.00366463 5.47001648 -0.00880432 C8.53921331 -0.01834503 11.60835577 -0.02025898 14.67756653 -0.02133179 C16.80126977 -0.02454216 18.92497278 -0.02790606 21.04867554 -0.03141785 C25.50676486 -0.0374169 29.96483478 -0.03925695 34.42292786 -0.03866577 C40.14771516 -0.0385641 45.87237858 -0.05221853 51.5971365 -0.06943798 C55.98505225 -0.08053264 60.37293782 -0.08258576 64.76086617 -0.08205605 C66.87207021 -0.08323991 68.98327494 -0.08768427 71.09446526 -0.09538841 C74.04209554 -0.10513748 76.98945376 -0.10233049 79.93708801 -0.09628296 C80.81664658 -0.10190247 81.69620514 -0.10752197 82.60241699 -0.11331177 C88.64065756 -0.08167826 88.64065756 -0.08167826 90.86897278 2.14663696 C91.06772143 5.02789538 91.14164422 7.81305761 91.12776184 10.69546509 C91.13126648 11.58011948 91.13477112 12.46477386 91.13838196 13.37623596 C91.14720844 16.31019867 91.14134689 19.24392166 91.13459778 22.17788696 C91.13594416 24.21048021 91.13788447 26.24307314 91.14039612 28.27566528 C91.14334862 32.53949036 91.13904566 36.80323175 91.12971497 41.06704712 C91.11832038 46.54183869 91.12487918 52.01643419 91.13685989 57.49121857 C91.14407507 61.6895598 91.14179214 65.88785428 91.13660431 70.0861969 C91.13526686 72.10529096 91.13691883 74.12438923 91.14156342 76.14347839 C91.14662303 78.96170348 91.1389264 81.77960774 91.12776184 84.59780884 C91.1318103 85.4383934 91.13585876 86.27897797 91.14002991 87.14503479 C91.0975007 92.91810904 91.0975007 92.91810904 88.86897278 95.14663696 C85.86114548 95.34027822 82.94569703 95.40877891 79.93708801 95.38955688 C79.01181305 95.39145523 78.08653809 95.39335358 77.13322449 95.39530945 C74.06458656 95.39902429 70.99618354 95.38830369 67.92756653 95.37710571 C65.80289742 95.3759143 63.67822778 95.37546067 61.55355835 95.37571716 C57.09722098 95.37415112 52.64096381 95.36585162 48.18464661 95.35244751 C42.45869761 95.3354472 36.73283677 95.33163339 31.0068655 95.33239269 C26.61898957 95.33212141 22.2311331 95.3266471 17.84326363 95.31939125 C15.73123891 95.31619853 13.61921198 95.31423578 11.50718498 95.31349754 C8.56190572 95.31134093 5.61672193 95.30261178 2.67146301 95.29190063 C1.34908882 95.29258041 1.34908882 95.29258041 0 95.29327393 C-6.01655317 95.26111101 -6.01655317 95.26111101 -7.13102722 94.14663696 C-7.23159414 91.26057681 -7.26718097 88.39841122 -7.26042175 85.51187134 C-7.26217407 84.60624954 -7.26392639 83.70062775 -7.26573181 82.76756287 C-7.27015176 79.75848503 -7.26721184 76.74946545 -7.26383972 73.74038696 C-7.26451272 71.65912871 -7.26548271 69.57787053 -7.26673889 67.49661255 C-7.26821606 63.12848159 -7.2660607 58.76037103 -7.26139832 54.39224243 C-7.25570102 48.77949143 -7.25897993 43.16678824 -7.26497078 37.554039 C-7.26857589 33.25452308 -7.26743804 28.95501858 -7.26484299 24.65550232 C-7.26417358 22.58534235 -7.26500262 20.51518136 -7.26732254 18.44502258 C-7.26984824 15.5571211 -7.26600964 12.66929819 -7.26042175 9.78140259 C-7.26244598 8.91695023 -7.26447021 8.05249786 -7.26655579 7.16184998 C-7.24118759 0.12267433 -7.02859702 0.03757303 0 0 Z " fill="#FEFEFE" transform="translate(1483.1310272216797,1496.8533630371094)"/>
<path d="M0 0 C0.87955856 0.00561951 1.75911713 0.01123901 2.66532898 0.01702881 C3.59060394 0.01513046 4.51587891 0.01323212 5.4691925 0.01127625 C8.53783043 0.0075614 11.60623345 0.018282 14.67485046 0.02947998 C16.79951957 0.0306714 18.92418921 0.03112502 21.04885864 0.03086853 C25.50519601 0.03243458 29.96145319 0.04073407 34.41777039 0.05413818 C40.14371938 0.07113849 45.86958022 0.07495231 51.59555149 0.074193 C55.98342742 0.07446428 60.37128389 0.07993859 64.75915337 0.08719444 C66.87117808 0.09038716 68.98320501 0.09234992 71.09523201 0.09308815 C74.04051127 0.09524477 76.98569506 0.10397392 79.93095398 0.11468506 C80.81253677 0.11423187 81.69411957 0.11377869 82.60241699 0.11331177 C88.61897016 0.14547468 88.61897016 0.14547468 89.73344421 1.25994873 C89.82868327 4.15138024 89.85897449 7.01886937 89.8469696 9.9105835 C89.84711563 10.81781158 89.84726166 11.72503967 89.84741211 12.65975952 C89.84671262 15.67364858 89.83891856 18.68747666 89.83110046 21.70135498 C89.82923641 23.7850084 89.82781245 25.86866227 89.82681274 27.95231628 C89.82298655 33.44818319 89.81315541 38.94402386 89.80210876 44.43988037 C89.79189681 50.043311 89.78731559 55.64674586 89.78227234 61.25018311 C89.77153323 72.25344987 89.75445561 83.25669712 89.73344421 94.25994873 C86.38008516 95.93662826 82.59710962 95.40713645 78.90922546 95.4052124 C77.53835281 95.41025032 77.53835281 95.41025032 76.13978577 95.41539001 C73.10849156 95.4249157 70.07725247 95.42684382 67.04594421 95.42791748 C64.94609046 95.43112853 62.84623694 95.43449248 60.74638367 95.43800354 C56.34134909 95.44399858 51.93633415 95.44584301 47.53129578 95.44525146 C41.87491784 95.44514973 36.21866511 95.45881221 30.56231689 95.47602367 C26.22501543 95.48711744 21.8877445 95.4891715 17.5504303 95.48864174 C15.46434598 95.48982543 13.37826097 95.49426882 11.29219055 95.50197411 C8.38059088 95.5117228 5.46926664 95.50891651 2.55766296 95.50286865 C1.25470779 95.51129791 1.25470779 95.51129791 -0.0745697 95.51989746 C-6.03823942 95.48826509 -6.03823942 95.48826509 -8.26655579 93.25994873 C-8.46530444 90.37869032 -8.53922723 87.59352808 -8.52534485 84.71112061 C-8.52884949 83.82646622 -8.53235413 82.94181183 -8.53596497 82.03034973 C-8.54479144 79.09638702 -8.5389299 76.16266404 -8.53218079 73.22869873 C-8.53352717 71.19610548 -8.53546748 69.16351255 -8.53797913 67.13092041 C-8.54093163 62.86709533 -8.53662867 58.60335394 -8.52729797 54.33953857 C-8.51590339 48.864747 -8.52246219 43.3901515 -8.5344429 37.91536713 C-8.54165808 33.71702589 -8.53937515 29.51873141 -8.53418732 25.32038879 C-8.53284987 23.30129473 -8.53450183 21.28219647 -8.53914642 19.2631073 C-8.54420603 16.44488221 -8.53650941 13.62697795 -8.52534485 10.80877686 C-8.52939331 9.96819229 -8.53344177 9.12760773 -8.53761292 8.2615509 C-8.48414615 1.00377126 -7.20524547 0.03774729 0 0 Z " fill="#FEFEFE" transform="translate(2339.266555786133,1496.7400512695313)"/>
<path d="M0 0 C0.86863678 0.00404846 1.73727356 0.00809692 2.63223267 0.01226807 C3.54614777 0.00876343 4.46006287 0.00525879 5.40167236 0.00164795 C8.43302937 -0.00717937 11.4641544 -0.00131668 14.49551392 0.00543213 C16.59536789 0.00408577 18.69522156 0.00214548 20.79507446 -0.00036621 C25.20013389 -0.00331883 29.60511232 0.00098461 34.01016235 0.01031494 C39.66655423 0.02170952 45.32275633 0.01515079 50.97914124 0.00317001 C55.31645141 -0.00404485 59.65371632 -0.00176237 63.99102783 0.0034256 C66.07710797 0.00476313 68.16319218 0.00311078 70.24926758 -0.00153351 C73.16088806 -0.0065926 76.07219792 0.00110281 78.98379517 0.01226807 C79.85243195 0.0082196 80.72106873 0.00417114 81.61602783 0 C87.57948619 0.04252941 87.57948619 0.04252941 89.80801392 2.27105713 C89.80801392 12.50105713 89.80801392 22.73105713 89.80801392 33.27105713 C57.46801392 33.27105713 25.12801392 33.27105713 -8.19198608 33.27105713 C-8.19198608 0.05842253 -8.19198608 0.05842253 0 0 Z " fill="#F7F7F7" transform="translate(714.1919860839844,1495.7289428710938)"/>
<path d="M0 0 C32.34 0 64.68 0 98 0 C98 10.56 98 21.12 98 32 C85.37004197 32.02254916 72.7400972 32.040914 60.11012363 32.05181217 C54.24617836 32.05704146 48.38224751 32.06413994 42.51831055 32.07543945 C36.86438288 32.0862667 31.21046913 32.09227649 25.55653191 32.09487724 C23.3942639 32.09673179 21.23199669 32.10035295 19.06973457 32.10573006 C16.05241343 32.11293833 13.03515057 32.11399103 10.01782227 32.11352539 C9.1143959 32.11712067 8.21096954 32.12071594 7.28016663 32.12442017 C1.11405216 32.11405216 1.11405216 32.11405216 0 31 C0 20.77 0 10.54 0 0 Z " fill="#FEFEFE" transform="translate(1276,1560)"/>
<path d="M0 0 C1.33875687 0.00303635 1.33875687 0.00303635 2.70455933 0.00613403 C4.10688309 0.00350555 4.10688309 0.00350555 5.53753662 0.00082397 C8.6440107 -0.00359617 11.75042837 -0.00065598 14.85690308 0.00271606 C17.00542207 0.00204307 19.15394099 0.00107309 21.30245972 -0.00018311 C25.81182579 -0.0016603 30.3211721 0.00049517 34.83053589 0.00515747 C40.62488885 0.01085477 46.41919549 0.00757588 52.21354675 0.00158501 C56.65203198 -0.00202002 61.09050614 -0.00088229 65.5289917 0.0017128 C67.66613775 0.00238223 69.80328479 0.00155309 71.94042969 -0.00076675 C74.92172934 -0.00329233 77.90295288 0.00054597 80.88424683 0.00613403 C81.7767514 0.0041098 82.66925598 0.00208557 83.58880615 0 C89.68014075 0.02126624 89.68014075 0.02126624 90.79440308 1.13552856 C90.79440308 11.36552856 90.79440308 21.59552856 90.79440308 32.13552856 C58.45440308 32.13552856 26.11440308 32.13552856 -7.20559692 32.13552856 C-7.20559692 0.02515638 -7.20559692 0.02515638 0 0 Z " fill="#FCFCFC" transform="translate(2540.205596923828,1496.8644714355469)"/>
</svg>
